<?xml version="1.0" standalone="no"?>
<!DOCTYPE svg PUBLIC "-//W3C//DTD SVG 20010904//EN"
 "http://www.w3.org/TR/2001/REC-SVG-20010904/DTD/svg10.dtd">
<svg version="1.0" xmlns="http://www.w3.org/2000/svg"
 width="483.000000pt" height="483.000000pt" viewBox="0 0 483.000000 483.000000"
 preserveAspectRatio="xMidYMid meet">

<g transform="translate(0.000000,483.000000) scale(0.100000,-0.100000)"
fill="none" stroke="none">
<path d="M853 4806 c3 -8 301 -548 661 -1200 361 -652 656 -1187 656 -1190 0
-2 -266 -485 -591 -1073 -325 -587 -624 -1128 -665 -1201 l-73 -132 1116 2
1116 3 664 1200 664 1200 -23 43 c-13 24 -311 564 -663 1200 l-640 1157 -1114
3 c-965 2 -1112 0 -1108 -12z"/>
</g>
</svg>
